<svg xmlns="http://www.w3.org/2000/svg" xmlns:xlink="http://www.w3.org/1999/xlink" width="500" zoomAndPan="magnify" viewBox="0 0 375 374.999991" height="500" preserveAspectRatio="xMidYMid meet" version="1.0"><defs><g/><clipPath id="388173ca28"><path d="M 38.019531 30.863281 L 323.769531 30.863281 L 323.769531 289.613281 L 38.019531 289.613281 Z M 38.019531 30.863281 " clip-rule="nonzero"/></clipPath><clipPath id="f2c360b113"><path d="M 100.152344 14.160156 L 274.902344 14.160156 L 274.902344 305.160156 L 100.152344 305.160156 Z M 100.152344 14.160156 " clip-rule="nonzero"/></clipPath></defs><rect x="-37.5" width="450" fill="#ffffff" y="-37.499999" height="449.999989" fill-opacity="1"/><rect x="-37.5" width="450" fill="#ffffff" y="-37.499999" height="449.999989" fill-opacity="1"/><rect x="-37.5" width="450" fill="#f4f2f1" y="-37.499999" height="449.999989" fill-opacity="1"/><g clip-path="url(#388173ca28)"><path fill="#031424" d="M 318.765625 -910.578125 L 313.757812 -910.578125 L 313.503906 -904.488281 C 313.1875 -895.605469 314.011719 -895.984375 295.574219 -895.984375 C 277.136719 -895.984375 277.960938 -895.605469 277.644531 -904.488281 L 277.390625 -910.578125 L 82.371094 -910.578125 L 82.371094 -903.851562 C 82.371094 -897.316406 82.308594 -897.128906 80.535156 -895.289062 L 78.695312 -893.445312 L 64.378906 -893.445312 C 50.246094 -893.445312 50.121094 -893.445312 48.347656 -894.96875 C 46.636719 -896.429688 46.574219 -896.746094 46.382812 -903.472656 L 46.128906 -910.449219 L 42.074219 -910.703125 L 38.019531 -910.894531 L 38.019531 319.03125 L 100.113281 319.03125 L 100.113281 289.847656 L 259.777344 289.847656 L 259.777344 319.03125 L 323.769531 319.03125 L 323.769531 -910.578125 Z M 311.859375 -857.15625 C 310.464844 -855.695312 310.210938 -855.695312 295.574219 -855.695312 C 276.375 -855.695312 277.835938 -854.617188 277.835938 -869.019531 C 277.835938 -883.359375 276.441406 -882.28125 295.320312 -882.535156 L 309.832031 -882.722656 L 311.792969 -880.820312 L 313.695312 -878.855469 L 313.503906 -868.703125 C 313.316406 -859.1875 313.25 -858.488281 311.859375 -857.15625 Z M 312.113281 -817.5 L 310.589844 -815.722656 L 295.636719 -815.722656 C 276.375 -815.722656 277.835938 -814.644531 277.835938 -829.046875 C 277.835938 -843.449219 276.375 -842.371094 295.636719 -842.371094 L 310.589844 -842.371094 L 312.113281 -840.59375 C 313.570312 -838.882812 313.632812 -838.4375 313.632812 -829.046875 C 313.632812 -819.65625 313.570312 -819.214844 312.113281 -817.5 Z M 312.113281 -777.527344 L 310.589844 -775.753906 L 295.636719 -775.753906 C 276.375 -775.753906 277.835938 -774.671875 277.835938 -789.140625 C 277.835938 -803.226562 276.25 -802.082031 295.890625 -802.082031 C 314.898438 -802.082031 313.503906 -803.160156 313.570312 -788.632812 C 313.632812 -779.6875 313.570312 -779.242188 312.113281 -777.527344 Z M 311.792969 -737.304688 L 309.957031 -735.464844 L 281.191406 -735.464844 L 279.355469 -737.367188 L 277.453125 -739.269531 L 277.644531 -749.484375 C 277.898438 -763.125 276.441406 -762.109375 295.382812 -762.109375 C 304.445312 -762.109375 310.402344 -761.855469 311.160156 -761.414062 C 313.1875 -760.335938 313.570312 -758.496094 313.570312 -748.597656 L 313.632812 -739.144531 Z M 311.792969 -697.332031 L 309.957031 -695.492188 L 281.191406 -695.492188 L 279.355469 -697.332031 L 277.515625 -699.171875 L 277.515625 -708.496094 C 277.515625 -718.140625 278.085938 -720.871094 280.367188 -721.757812 C 282.207031 -722.457031 309.832031 -722.203125 311.160156 -721.441406 C 313.1875 -720.363281 313.570312 -718.523438 313.570312 -708.625 L 313.632812 -699.171875 Z M 311.792969 -657.359375 L 309.957031 -655.519531 L 281.191406 -655.519531 L 279.355469 -657.359375 L 277.515625 -659.199219 L 277.515625 -668.527344 C 277.515625 -678.171875 278.085938 -680.898438 280.367188 -681.785156 C 282.207031 -682.484375 309.832031 -682.230469 311.160156 -681.46875 C 313.1875 -680.390625 313.570312 -678.550781 313.570312 -668.652344 L 313.632812 -659.199219 Z M 311.792969 -617.386719 L 309.957031 -615.546875 L 281.191406 -615.546875 L 279.355469 -617.386719 L 277.515625 -619.226562 L 277.515625 -628.554688 C 277.515625 -638.199219 278.085938 -640.925781 280.367188 -641.816406 C 282.207031 -642.511719 309.832031 -642.257812 311.160156 -641.496094 C 313.1875 -640.417969 313.570312 -638.578125 313.570312 -628.679688 L 313.632812 -619.226562 Z M 312.683594 -578.175781 C 312.175781 -577.160156 311.289062 -576.210938 310.78125 -575.957031 C 309.386719 -575.449219 281.761719 -575.449219 280.367188 -575.957031 C 278.152344 -576.84375 277.515625 -579.636719 277.515625 -589.027344 C 277.515625 -598.226562 277.898438 -600.066406 280.304688 -601.714844 C 280.683594 -601.96875 287.589844 -602.222656 295.636719 -602.222656 C 310.84375 -602.222656 311.414062 -602.160156 312.871094 -599.367188 C 314.011719 -597.339844 313.820312 -580.335938 312.683594 -578.175781 Z M 311.792969 -536.808594 C 310.464844 -535.730469 309.132812 -535.605469 295.890625 -535.605469 C 287.910156 -535.605469 280.9375 -535.792969 280.367188 -535.984375 C 278.085938 -536.871094 277.515625 -539.601562 277.515625 -549.246094 L 277.515625 -558.570312 L 279.355469 -560.410156 L 281.191406 -562.25 L 310.335938 -562.25 L 312.046875 -560.222656 L 313.695312 -558.253906 L 313.503906 -548.167969 C 313.316406 -538.394531 313.25 -537.953125 311.792969 -536.808594 Z M 311.792969 -496.835938 C 310.464844 -495.757812 309.132812 -495.632812 295.890625 -495.632812 C 287.910156 -495.632812 280.9375 -495.820312 280.367188 -496.011719 C 278.085938 -496.902344 277.515625 -499.628906 277.515625 -509.273438 L 277.515625 -518.601562 L 279.355469 -520.441406 L 281.191406 -522.28125 L 309.957031 -522.28125 L 311.792969 -520.375 L 313.695312 -518.472656 L 313.503906 -508.257812 C 313.316406 -498.421875 313.25 -498.042969 311.792969 -496.835938 Z M 311.792969 -456.867188 C 310.464844 -455.785156 309.132812 -455.660156 295.890625 -455.660156 C 287.910156 -455.660156 280.9375 -455.851562 280.367188 -456.039062 C 278.085938 -456.929688 277.515625 -459.65625 277.515625 -469.300781 L 277.515625 -478.628906 L 279.355469 -480.46875 L 281.191406 -482.308594 L 309.957031 -482.308594 L 311.792969 -480.40625 L 313.695312 -478.5 L 313.503906 -468.285156 C 313.316406 -458.453125 313.25 -458.070312 311.792969 -456.867188 Z M 311.792969 -416.894531 C 310.464844 -415.816406 309.132812 -415.6875 295.574219 -415.6875 C 276.375 -415.6875 277.898438 -414.609375 277.644531 -428.3125 L 277.453125 -438.527344 L 279.355469 -440.433594 L 281.191406 -442.335938 L 309.957031 -442.335938 L 311.792969 -440.433594 L 313.695312 -438.527344 L 313.503906 -428.3125 C 313.316406 -418.480469 313.25 -418.097656 311.792969 -416.894531 Z M 311.859375 -376.859375 C 310.464844 -375.460938 310.019531 -375.398438 296.90625 -375.207031 C 281.890625 -374.953125 279.355469 -375.460938 278.152344 -378.570312 C 277.769531 -379.523438 277.515625 -384.410156 277.515625 -389.421875 L 277.515625 -398.683594 L 279.355469 -400.523438 L 281.191406 -402.363281 L 309.957031 -402.363281 L 311.792969 -400.460938 L 313.695312 -398.558594 L 313.503906 -388.40625 C 313.316406 -378.886719 313.25 -378.191406 311.859375 -376.859375 Z M 312.113281 -337.203125 L 310.589844 -335.425781 L 295.636719 -335.425781 C 276.375 -335.425781 277.835938 -334.347656 277.835938 -348.75 C 277.835938 -363.152344 276.375 -362.074219 295.636719 -362.074219 L 310.589844 -362.074219 L 312.113281 -360.296875 C 313.570312 -358.585938 313.632812 -358.140625 313.632812 -348.75 C 313.632812 -339.359375 313.570312 -338.917969 312.113281 -337.203125 Z M 311.792969 -296.976562 L 309.957031 -295.136719 L 295.636719 -295.136719 C 281.507812 -295.136719 281.382812 -295.136719 279.609375 -296.660156 L 277.835938 -298.183594 L 277.644531 -307.636719 C 277.390625 -318.550781 277.769531 -320.199219 281.066406 -321.53125 C 284.359375 -322.929688 309.703125 -322.609375 311.414062 -321.152344 C 313.25 -319.628906 313.570312 -317.980469 313.570312 -308.273438 L 313.632812 -298.816406 Z M 311.792969 -257.007812 L 309.957031 -255.167969 L 281.191406 -255.167969 L 279.355469 -257.007812 L 277.515625 -258.847656 L 277.515625 -268.171875 C 277.515625 -277.816406 278.085938 -280.546875 280.367188 -281.433594 C 282.207031 -282.132812 309.832031 -281.878906 311.160156 -281.117188 C 313.1875 -280.039062 313.570312 -278.199219 313.570312 -268.300781 L 313.632812 -258.847656 Z M 311.792969 -217.035156 L 309.957031 -215.195312 L 281.191406 -215.195312 L 279.355469 -217.035156 L 277.515625 -218.875 L 277.515625 -228.199219 C 277.515625 -237.84375 278.085938 -240.574219 280.367188 -241.460938 C 282.207031 -242.160156 309.832031 -241.90625 311.160156 -241.144531 C 313.1875 -240.066406 313.570312 -238.226562 313.570312 -228.328125 L 313.632812 -218.875 Z M 311.792969 -177.0625 L 309.957031 -175.222656 L 281.191406 -175.222656 L 279.355469 -177.0625 L 277.515625 -178.902344 L 277.515625 -188.230469 C 277.515625 -197.875 278.085938 -200.601562 280.367188 -201.488281 C 282.207031 -202.1875 309.832031 -201.933594 311.160156 -201.171875 C 313.1875 -200.09375 313.570312 -198.253906 313.570312 -188.355469 L 313.632812 -178.902344 Z M 312.683594 -137.851562 C 312.175781 -136.835938 311.289062 -135.886719 310.78125 -135.632812 C 310.210938 -135.441406 303.304688 -135.25 295.449219 -135.25 L 281.191406 -135.25 L 279.355469 -137.089844 L 277.515625 -138.929688 L 277.515625 -148.257812 C 277.515625 -157.902344 278.085938 -160.628906 280.367188 -161.519531 C 282.207031 -162.214844 309.832031 -161.960938 311.160156 -161.199219 C 313.1875 -160.121094 313.570312 -158.28125 313.570312 -148.703125 C 313.632812 -141.914062 313.378906 -139.183594 312.683594 -137.851562 Z M 311.792969 -96.484375 C 310.464844 -95.40625 309.132812 -95.277344 295.890625 -95.277344 C 287.910156 -95.277344 280.9375 -95.46875 280.367188 -95.660156 C 278.085938 -96.546875 277.515625 -99.277344 277.515625 -108.917969 L 277.515625 -118.246094 L 279.355469 -120.085938 L 281.191406 -121.925781 L 295.382812 -121.863281 C 303.179688 -121.863281 310.019531 -121.609375 310.71875 -121.355469 C 313.25 -120.402344 313.632812 -118.308594 313.503906 -107.777344 C 313.316406 -98.070312 313.25 -97.691406 311.792969 -96.484375 Z M 311.792969 -56.511719 C 310.464844 -55.433594 309.132812 -55.308594 295.890625 -55.308594 C 287.910156 -55.308594 280.9375 -55.496094 280.367188 -55.6875 C 278.085938 -56.574219 277.515625 -59.304688 277.515625 -68.949219 L 277.515625 -78.273438 L 279.355469 -80.113281 L 281.191406 -81.953125 L 309.957031 -81.953125 L 311.792969 -80.050781 L 313.695312 -78.148438 L 313.503906 -67.933594 C 313.316406 -58.097656 313.25 -57.71875 311.792969 -56.511719 Z M 311.792969 -16.539062 C 310.464844 -15.460938 309.132812 -15.335938 295.890625 -15.335938 C 287.910156 -15.335938 280.9375 -15.523438 280.367188 -15.714844 C 278.085938 -16.605469 277.515625 -19.332031 277.515625 -28.976562 L 277.515625 -38.304688 L 279.355469 -40.144531 L 281.191406 -41.984375 L 309.957031 -41.984375 L 311.792969 -40.078125 L 313.695312 -38.175781 L 313.503906 -27.960938 C 313.316406 -18.125 313.25 -17.746094 311.792969 -16.539062 Z M 311.792969 23.429688 C 310.464844 24.511719 309.132812 24.636719 295.890625 24.636719 C 287.910156 24.636719 280.9375 24.445312 280.367188 24.257812 C 278.085938 23.367188 277.515625 20.640625 277.515625 10.996094 L 277.515625 1.667969 L 279.355469 -0.171875 L 281.191406 -2.011719 L 309.957031 -2.011719 L 311.792969 -0.109375 L 313.695312 1.796875 L 313.503906 12.011719 C 313.316406 21.84375 313.25 22.226562 311.792969 23.429688 Z M 311.792969 63.402344 C 310.464844 64.480469 309.132812 64.609375 295.574219 64.609375 C 276.3125 64.609375 277.835938 65.6875 277.835938 51.664062 C 277.835938 37.261719 276.441406 38.339844 295.320312 38.085938 L 309.832031 37.898438 L 311.792969 39.800781 L 313.695312 41.769531 L 313.503906 51.984375 C 313.316406 61.816406 313.25 62.199219 311.792969 63.402344 Z M 312.113281 103.121094 L 310.589844 104.898438 L 295.636719 104.898438 C 276.375 104.898438 277.835938 105.976562 277.835938 91.574219 C 277.835938 77.171875 276.375 78.25 295.636719 78.25 L 310.589844 78.25 L 312.113281 80.027344 C 313.570312 81.738281 313.632812 82.183594 313.632812 91.574219 C 313.632812 100.964844 313.570312 101.410156 312.113281 103.121094 Z M 312.113281 143.09375 L 310.589844 144.871094 L 295.636719 144.871094 C 276.566406 144.871094 277.898438 145.757812 277.644531 132.625 C 277.390625 121.773438 277.835938 120.125 281.066406 118.792969 C 284.359375 117.398438 309.703125 117.714844 311.414062 119.171875 C 313.25 120.695312 313.570312 122.347656 313.570312 131.988281 C 313.632812 140.9375 313.570312 141.378906 312.113281 143.09375 Z M 311.792969 183.320312 L 309.957031 185.160156 L 281.191406 185.160156 L 279.355469 183.253906 L 277.453125 181.351562 L 277.644531 171.136719 C 277.898438 157.496094 276.441406 158.511719 295.382812 158.511719 C 304.445312 158.511719 310.402344 158.765625 311.160156 159.207031 C 313.1875 160.289062 313.570312 162.128906 313.570312 172.023438 L 313.632812 181.480469 Z M 311.792969 223.289062 L 309.957031 225.128906 L 281.191406 225.128906 L 279.355469 223.289062 L 277.515625 221.449219 L 277.515625 212.125 C 277.515625 202.480469 278.085938 199.75 280.367188 198.863281 C 282.207031 198.164062 309.832031 198.417969 311.160156 199.179688 C 313.1875 200.257812 313.570312 202.097656 313.570312 211.996094 L 313.632812 221.449219 Z M 311.792969 263.261719 L 309.957031 265.101562 L 281.191406 265.101562 L 279.355469 263.261719 L 277.515625 261.421875 L 277.515625 252.097656 C 277.515625 242.453125 278.085938 239.722656 280.367188 238.835938 C 282.207031 238.136719 309.832031 238.390625 311.160156 239.152344 C 313.1875 240.230469 313.570312 242.070312 313.570312 251.96875 L 313.632812 261.421875 Z M 311.792969 303.234375 L 309.957031 305.074219 L 281.191406 305.074219 L 279.355469 303.234375 L 277.515625 301.394531 L 277.515625 292.066406 C 277.515625 282.425781 278.085938 279.695312 280.367188 278.808594 C 282.207031 278.109375 309.832031 278.363281 311.160156 279.125 C 313.1875 280.203125 313.570312 282.042969 313.570312 291.941406 L 313.632812 301.394531 Z M 181.210938 -674.554688 L 101.378906 -674.554688 L 101.378906 -887.738281 L 261.042969 -887.738281 L 261.042969 -674.554688 Z M 181.210938 -438.527344 L 101.378906 -438.527344 L 101.378906 -652.347656 L 261.042969 -652.347656 L 261.042969 -438.527344 Z M 181.210938 -203.140625 L 101.378906 -203.140625 L 101.378906 -416.324219 L 261.042969 -416.324219 L 261.042969 -203.140625 Z M 181.210938 32.886719 L 101.378906 32.886719 L 101.378906 -180.933594 L 261.042969 -180.933594 L 261.042969 32.886719 Z M 181.210938 268.273438 L 101.378906 268.273438 L 101.378906 55.089844 L 261.042969 55.089844 L 261.042969 268.273438 Z M 80.535156 -855.316406 L 78.695312 -853.476562 L 64.378906 -853.476562 C 50.246094 -853.476562 50.121094 -853.476562 48.347656 -854.996094 C 46.574219 -856.519531 46.574219 -856.648438 46.382812 -864.960938 C 46.128906 -874.539062 46.445312 -877.140625 48.21875 -878.917969 C 49.359375 -880.058594 50.4375 -880.125 64.1875 -880.125 C 79.582031 -880.125 80.152344 -880.058594 81.609375 -877.269531 C 82.054688 -876.507812 82.371094 -872.191406 82.371094 -866.609375 L 82.371094 -857.15625 Z M 80.722656 -815.46875 L 79.078125 -813.503906 L 49.613281 -813.503906 L 48.09375 -815.152344 C 46.699219 -816.675781 46.574219 -817.308594 46.382812 -825.050781 C 46.128906 -834.566406 46.445312 -837.167969 48.21875 -838.945312 C 49.359375 -840.089844 50.4375 -840.152344 64.1875 -840.152344 C 79.582031 -840.152344 80.152344 -840.089844 81.609375 -837.296875 C 82.054688 -836.535156 82.371094 -832.21875 82.371094 -826.699219 C 82.371094 -817.628906 82.308594 -817.375 80.722656 -815.46875 Z M 81.292969 -776.070312 C 80.722656 -775.179688 79.898438 -774.292969 79.582031 -774.039062 C 79.203125 -773.785156 72.296875 -773.53125 64.25 -773.53125 L 49.613281 -773.53125 L 48.09375 -775.179688 C 46.636719 -776.765625 46.574219 -777.085938 46.574219 -786.980469 L 46.574219 -797.132812 L 48.347656 -798.65625 C 50.121094 -800.179688 50.246094 -800.179688 64.378906 -800.179688 L 78.695312 -800.179688 L 80.535156 -798.339844 L 82.371094 -796.5 L 82.371094 -787.046875 C 82.371094 -779.242188 82.179688 -777.339844 81.292969 -776.070312 Z M 81.421875 -736.160156 C 80.914062 -735.144531 80.027344 -734.195312 79.519531 -733.941406 C 78.949219 -733.75 71.917969 -733.558594 63.933594 -733.558594 C 45.050781 -733.558594 46.003906 -732.796875 46.382812 -748.152344 C 46.574219 -757.097656 46.574219 -757.164062 48.347656 -758.683594 C 50.121094 -760.207031 50.246094 -760.207031 64.378906 -760.207031 L 78.695312 -760.207031 L 80.535156 -758.367188 L 82.371094 -756.527344 L 82.371094 -747.199219 C 82.371094 -740.285156 82.117188 -737.492188 81.421875 -736.160156 Z M 81.421875 -696.1875 C 80.914062 -695.175781 80.027344 -694.222656 79.519531 -693.96875 C 78.949219 -693.777344 71.917969 -693.585938 63.933594 -693.585938 C 45.117188 -693.585938 45.941406 -692.890625 46.382812 -708.75 C 46.574219 -717.0625 46.574219 -717.191406 48.347656 -718.714844 C 50.121094 -720.234375 50.246094 -720.234375 64.378906 -720.234375 L 78.695312 -720.234375 L 80.535156 -718.394531 L 82.371094 -716.554688 L 82.371094 -707.230469 C 82.371094 -700.3125 82.117188 -697.523438 81.421875 -696.1875 Z M 80.535156 -654.820312 C 79.203125 -653.742188 77.871094 -653.617188 64.3125 -653.617188 C 45.050781 -653.617188 46.574219 -652.472656 46.574219 -666.621094 L 46.574219 -677.21875 L 48.347656 -678.742188 C 50.121094 -680.265625 50.246094 -680.265625 64.378906 -680.265625 L 78.695312 -680.265625 L 80.535156 -678.359375 L 82.433594 -676.457031 L 82.246094 -666.242188 C 82.054688 -656.40625 81.992188 -656.027344 80.535156 -654.820312 Z M 80.535156 -614.847656 C 79.203125 -613.769531 77.871094 -613.644531 64.3125 -613.644531 C 45.050781 -613.644531 46.574219 -612.503906 46.574219 -626.652344 L 46.574219 -637.246094 L 48.347656 -638.769531 C 50.121094 -640.292969 50.246094 -640.292969 64.378906 -640.292969 L 78.695312 -640.292969 L 80.535156 -638.386719 L 82.433594 -636.484375 L 82.246094 -626.269531 C 82.054688 -616.4375 81.992188 -616.054688 80.535156 -614.847656 Z M 80.597656 -574.8125 C 79.203125 -573.355469 78.949219 -573.355469 64.3125 -573.355469 C 45.117188 -573.355469 46.574219 -572.277344 46.574219 -586.679688 C 46.574219 -601.019531 45.242188 -599.9375 63.554688 -600.191406 C 74.007812 -600.320312 78 -600.128906 79.203125 -599.496094 C 82.054688 -598.035156 82.433594 -596.324219 82.246094 -585.917969 C 82.054688 -576.84375 81.992188 -576.148438 80.597656 -574.8125 Z M 80.597656 -534.84375 C 79.203125 -533.382812 78.949219 -533.382812 64.3125 -533.382812 C 45.117188 -533.382812 46.574219 -532.304688 46.574219 -546.707031 C 46.574219 -561.109375 45.117188 -560.03125 64.25 -560.03125 C 79.898438 -560.03125 80.535156 -559.902344 81.800781 -556.859375 C 82.117188 -556.160156 82.246094 -551.210938 82.179688 -545.945312 C 82.054688 -536.808594 81.992188 -536.175781 80.597656 -534.84375 Z M 80.535156 -494.933594 L 78.695312 -493.09375 L 64.378906 -493.09375 C 50.246094 -493.09375 50.121094 -493.09375 48.347656 -494.617188 L 46.574219 -496.140625 L 46.574219 -506.734375 C 46.574219 -520.820312 45.117188 -519.742188 64.125 -519.742188 C 73.183594 -519.742188 79.140625 -519.488281 79.898438 -519.042969 C 81.925781 -517.964844 82.308594 -516.125 82.308594 -506.226562 L 82.371094 -496.773438 Z M 80.535156 -454.960938 L 78.695312 -453.121094 L 64.378906 -453.121094 C 50.246094 -453.121094 50.121094 -453.121094 48.347656 -454.644531 C 46.574219 -456.167969 46.574219 -456.292969 46.382812 -464.605469 C 46.128906 -474.1875 46.445312 -476.789062 48.21875 -478.566406 C 49.359375 -479.707031 50.4375 -479.769531 64.058594 -479.769531 C 73.183594 -479.769531 79.140625 -479.515625 79.898438 -479.070312 C 81.925781 -477.992188 82.308594 -476.152344 82.308594 -466.253906 L 82.371094 -456.800781 Z M 80.535156 -414.988281 L 78.695312 -413.148438 L 64.378906 -413.148438 C 50.246094 -413.148438 50.121094 -413.148438 48.347656 -414.671875 C 46.574219 -416.195312 46.574219 -416.324219 46.382812 -424.632812 C 46.128906 -434.214844 46.445312 -436.816406 48.21875 -438.59375 C 49.359375 -439.734375 50.4375 -439.796875 64.1875 -439.796875 C 79.582031 -439.796875 80.152344 -439.734375 81.609375 -436.941406 C 82.054688 -436.179688 82.371094 -431.867188 82.371094 -426.285156 L 82.371094 -416.832031 Z M 80.535156 -375.019531 L 78.695312 -373.179688 L 64.378906 -373.179688 C 50.246094 -373.179688 50.121094 -373.179688 48.347656 -374.699219 C 46.574219 -376.222656 46.574219 -376.289062 46.382812 -385.234375 C 46.128906 -395.195312 46.320312 -396.71875 48.15625 -398.558594 C 49.359375 -399.761719 50.3125 -399.828125 64.1875 -399.828125 C 79.582031 -399.828125 80.152344 -399.761719 81.609375 -396.972656 C 82.054688 -396.210938 82.371094 -391.894531 82.371094 -386.3125 L 82.371094 -376.859375 Z M 81.421875 -335.808594 C 80.914062 -334.792969 80.027344 -333.839844 79.519531 -333.585938 C 78.949219 -333.398438 71.917969 -333.207031 63.996094 -333.207031 C 45.179688 -333.207031 45.941406 -332.570312 46.382812 -348.308594 C 46.574219 -356.046875 46.699219 -356.683594 48.09375 -358.203125 L 49.613281 -359.855469 L 64.25 -359.855469 C 72.296875 -359.855469 79.203125 -359.601562 79.582031 -359.347656 C 81.992188 -357.695312 82.371094 -355.855469 82.371094 -346.65625 C 82.371094 -339.933594 82.117188 -337.140625 81.421875 -335.808594 Z M 81.421875 -295.835938 C 80.914062 -294.820312 80.027344 -293.867188 79.519531 -293.617188 C 78.949219 -293.425781 71.917969 -293.234375 63.933594 -293.234375 C 45.117188 -293.234375 45.941406 -292.535156 46.382812 -308.398438 C 46.574219 -316.710938 46.574219 -316.835938 48.347656 -318.359375 C 50.121094 -319.882812 50.246094 -319.882812 64.628906 -319.882812 L 79.078125 -319.882812 L 80.722656 -317.914062 C 82.308594 -316.011719 82.371094 -315.757812 82.371094 -306.8125 C 82.371094 -299.960938 82.117188 -297.167969 81.421875 -295.835938 Z M 81.421875 -255.863281 C 80.914062 -254.847656 80.027344 -253.898438 79.519531 -253.644531 C 78.949219 -253.453125 71.917969 -253.261719 63.933594 -253.261719 C 45.117188 -253.261719 45.941406 -252.566406 46.382812 -268.425781 C 46.574219 -276.738281 46.574219 -276.863281 48.347656 -278.386719 C 50.121094 -279.910156 50.246094 -279.910156 64.378906 -279.910156 L 78.695312 -279.910156 L 80.535156 -278.070312 L 82.371094 -276.230469 L 82.371094 -266.902344 C 82.371094 -259.988281 82.117188 -257.195312 81.421875 -255.863281 Z M 81.421875 -215.890625 C 80.914062 -214.878906 80.027344 -213.925781 79.519531 -213.671875 C 78.949219 -213.480469 71.917969 -213.289062 63.933594 -213.289062 C 45.117188 -213.289062 45.941406 -212.59375 46.382812 -228.453125 C 46.574219 -236.765625 46.574219 -236.894531 48.347656 -238.414062 C 50.121094 -239.9375 50.246094 -239.9375 64.378906 -239.9375 L 78.695312 -239.9375 L 80.535156 -238.097656 L 82.371094 -236.257812 L 82.371094 -226.933594 C 82.371094 -220.015625 82.117188 -217.222656 81.421875 -215.890625 Z M 80.535156 -174.523438 C 79.203125 -173.445312 77.871094 -173.320312 64.3125 -173.320312 C 45.050781 -173.320312 46.574219 -172.175781 46.574219 -186.324219 L 46.574219 -196.921875 L 48.347656 -198.445312 C 50.121094 -199.96875 50.246094 -199.96875 64.378906 -199.96875 L 78.695312 -199.96875 L 80.535156 -198.0625 L 82.433594 -196.160156 L 82.246094 -185.945312 C 82.054688 -176.109375 81.992188 -175.730469 80.535156 -174.523438 Z M 81.738281 -136.203125 C 80.597656 -133.21875 78 -132.710938 64.3125 -132.710938 C 50.4375 -132.710938 48.03125 -133.21875 46.828125 -136.328125 C 46.445312 -137.40625 46.257812 -141.914062 46.382812 -147.496094 L 46.574219 -156.949219 L 48.347656 -158.472656 C 50.121094 -159.996094 50.246094 -159.996094 64.378906 -159.996094 L 78.695312 -159.996094 L 80.535156 -158.15625 L 82.371094 -156.316406 L 82.371094 -147.050781 C 82.371094 -142.039062 82.117188 -137.152344 81.738281 -136.203125 Z M 80.597656 -94.515625 C 79.203125 -93.058594 78.949219 -93.058594 64.3125 -93.058594 C 45.117188 -93.058594 46.574219 -91.980469 46.574219 -106.382812 C 46.574219 -120.785156 45.117188 -119.707031 64.25 -119.707031 C 79.898438 -119.707031 80.535156 -119.578125 81.800781 -116.535156 C 82.117188 -115.835938 82.246094 -110.886719 82.179688 -105.621094 C 82.054688 -96.484375 81.992188 -95.851562 80.597656 -94.515625 Z M 80.21875 -54.292969 L 78.441406 -52.707031 L 63.933594 -52.894531 C 45.371094 -53.148438 46.636719 -52.261719 46.382812 -65.332031 C 46.128906 -76.179688 46.574219 -77.832031 49.804688 -79.164062 C 53.097656 -80.558594 78.441406 -80.242188 80.152344 -78.78125 C 82.054688 -77.195312 82.308594 -75.546875 82.179688 -65.585938 L 82.054688 -55.8125 Z M 80.535156 -14.636719 L 78.695312 -12.796875 L 64.378906 -12.796875 C 50.246094 -12.796875 50.121094 -12.796875 48.347656 -14.320312 C 46.574219 -15.84375 46.574219 -15.96875 46.382812 -24.28125 C 46.128906 -33.863281 46.445312 -36.460938 48.21875 -38.238281 C 49.359375 -39.382812 50.4375 -39.445312 64.1875 -39.445312 C 79.582031 -39.445312 80.152344 -39.382812 81.609375 -36.589844 C 82.054688 -35.828125 82.371094 -31.515625 82.371094 -25.929688 L 82.371094 -16.476562 Z M 80.535156 25.335938 L 78.695312 27.175781 L 64.378906 27.175781 C 50.246094 27.175781 50.121094 27.175781 48.347656 25.652344 C 46.574219 24.128906 46.574219 24.003906 46.382812 15.691406 C 46.128906 6.109375 46.445312 3.507812 48.21875 1.734375 C 49.359375 0.589844 50.4375 0.527344 64.1875 0.527344 C 79.582031 0.527344 80.152344 0.589844 81.609375 3.382812 C 82.054688 4.144531 82.371094 8.457031 82.371094 14.042969 L 82.371094 23.496094 Z M 80.535156 65.308594 L 78.695312 67.148438 L 64.378906 67.148438 C 50.246094 67.148438 50.121094 67.148438 48.347656 65.625 C 46.574219 64.101562 46.574219 63.972656 46.382812 55.664062 C 46.128906 46.082031 46.445312 43.480469 48.21875 41.703125 C 49.359375 40.5625 50.4375 40.5 64.1875 40.5 C 79.582031 40.5 80.152344 40.5625 81.609375 43.355469 C 82.054688 44.117188 82.371094 48.429688 82.371094 54.011719 L 82.371094 63.46875 Z M 80.535156 105.277344 L 78.695312 107.117188 L 64.378906 107.117188 C 50.246094 107.117188 50.121094 107.117188 48.347656 105.597656 C 46.574219 104.074219 46.574219 103.945312 46.382812 95.632812 C 46.128906 86.054688 46.445312 83.453125 48.21875 81.675781 C 49.359375 80.535156 50.4375 80.472656 64.1875 80.472656 C 79.582031 80.472656 80.152344 80.535156 81.609375 83.324219 C 82.054688 84.085938 82.371094 88.402344 82.371094 93.984375 L 82.371094 103.4375 Z M 81.292969 144.550781 C 80.722656 145.441406 79.898438 146.328125 79.582031 146.582031 C 79.203125 146.835938 72.296875 147.089844 64.25 147.089844 L 49.613281 147.089844 L 48.09375 145.441406 C 46.636719 143.855469 46.574219 143.539062 46.574219 133.640625 L 46.574219 123.488281 L 48.347656 121.964844 C 50.121094 120.441406 50.246094 120.441406 64.378906 120.441406 L 78.695312 120.441406 L 80.535156 122.28125 L 82.371094 124.121094 L 82.371094 133.578125 C 82.371094 141.378906 82.179688 143.285156 81.292969 144.550781 Z M 81.421875 184.460938 C 80.914062 185.476562 80.027344 186.429688 79.519531 186.683594 C 78.949219 186.871094 71.917969 187.0625 63.933594 187.0625 C 45.050781 187.0625 46.003906 187.824219 46.382812 172.46875 C 46.574219 163.523438 46.574219 163.460938 48.347656 161.9375 C 50.121094 160.414062 50.246094 160.414062 64.378906 160.414062 L 78.695312 160.414062 L 80.535156 162.253906 L 82.371094 164.09375 L 82.371094 173.421875 C 82.371094 180.335938 82.117188 183.128906 81.421875 184.460938 Z M 81.421875 224.433594 C 80.914062 225.449219 80.027344 226.398438 79.519531 226.652344 C 78.949219 226.84375 71.917969 227.035156 63.933594 227.035156 C 45.117188 227.035156 45.941406 227.730469 46.382812 211.871094 C 46.574219 203.558594 46.574219 203.433594 48.347656 201.910156 C 50.121094 200.386719 50.246094 200.386719 64.378906 200.386719 L 78.695312 200.386719 L 80.535156 202.226562 L 82.371094 204.066406 L 82.371094 213.394531 C 82.371094 220.308594 82.117188 223.101562 81.421875 224.433594 Z M 80.535156 265.800781 C 79.203125 266.878906 77.871094 267.007812 64.25 267.007812 C 45.117188 267.007812 45.941406 267.765625 46.382812 251.84375 C 46.574219 243.53125 46.574219 243.402344 48.347656 241.882812 C 50.121094 240.359375 50.246094 240.359375 64.378906 240.359375 L 78.695312 240.359375 L 80.535156 242.261719 L 82.433594 244.164062 L 82.246094 254.378906 C 82.054688 264.214844 81.992188 264.59375 80.535156 265.800781 Z M 80.535156 305.773438 C 79.203125 306.851562 77.871094 306.976562 64.3125 306.976562 C 45.050781 306.976562 46.574219 308.121094 46.574219 293.972656 L 46.574219 283.375 L 48.347656 281.851562 C 50.121094 280.332031 50.246094 280.332031 64.378906 280.332031 L 78.695312 280.332031 L 80.535156 282.234375 L 82.433594 284.136719 L 82.246094 294.351562 C 82.054688 304.1875 81.992188 304.566406 80.535156 305.773438 Z M 80.535156 305.773438 " fill-opacity="1" fill-rule="nonzero"/></g><g clip-path="url(#f2c360b113)"><path fill="#031424" d="M 197.359375 14.160156 L 104.15625 43.261719 C 101.835938 44.421875 100.152344 46.761719 100.152344 49.082031 L 100.152344 276.0625 C 100.152344 278.96875 101.972656 281.289062 104.886719 281.878906 L 198.085938 305.160156 L 199.179688 305.160156 C 200.339844 305.160156 201.476562 304.660156 202.636719 304.070312 C 203.796875 302.910156 205.003906 301.089844 205.003906 299.339844 L 205.003906 19.980469 C 205.003906 18.230469 203.796875 16.410156 202.636719 15.25 C 200.882812 14.09375 199.109375 14.160156 197.359375 14.160156 Z M 216.652344 37.441406 L 216.652344 49.082031 L 263.253906 49.082031 L 263.253906 270.242188 L 216.652344 270.242188 L 216.652344 281.878906 L 269.078125 281.878906 C 272.285156 281.878906 274.902344 279.265625 274.902344 276.0625 L 274.902344 43.261719 C 274.902344 40.054688 272.285156 37.441406 269.078125 37.441406 Z M 181.703125 153.839844 C 185.207031 153.839844 187.527344 157.910156 187.527344 162.570312 C 187.527344 167.230469 185.207031 171.300781 181.703125 171.300781 C 178.199219 171.300781 175.878906 167.230469 175.878906 162.570312 C 175.878906 157.910156 178.199219 153.839844 181.703125 153.839844 Z M 181.703125 153.839844 " fill-opacity="1" fill-rule="nonzero"/></g><g fill="#031424" fill-opacity="1"><g transform="translate(59.926284, 364.326012)"><g><path d="M 14.40625 -48.9375 C 18.40625 -48.9375 21.300781 -48.003906 23.09375 -46.140625 C 24.894531 -44.273438 25.796875 -41.453125 25.796875 -37.671875 L 25.796875 -35.9375 C 25.796875 -33.414062 25.398438 -31.335938 24.609375 -29.703125 C 23.816406 -28.078125 22.554688 -26.867188 20.828125 -26.078125 C 22.929688 -25.285156 24.410156 -23.988281 25.265625 -22.1875 C 26.128906 -20.394531 26.5625 -18.195312 26.5625 -15.59375 L 26.5625 -11.609375 C 26.5625 -7.828125 25.582031 -4.945312 23.625 -2.96875 C 21.664062 -0.988281 18.753906 0 14.890625 0 L 2.796875 0 L 2.796875 -48.9375 Z M 10.484375 -22.015625 L 10.484375 -6.984375 L 14.890625 -6.984375 C 16.191406 -6.984375 17.179688 -7.332031 17.859375 -8.03125 C 18.535156 -8.738281 18.875 -10 18.875 -11.8125 L 18.875 -16.078125 C 18.875 -18.359375 18.488281 -19.914062 17.71875 -20.75 C 16.945312 -21.59375 15.675781 -22.015625 13.90625 -22.015625 Z M 10.484375 -41.9375 L 10.484375 -29.015625 L 13.484375 -29.015625 C 14.929688 -29.015625 16.0625 -29.382812 16.875 -30.125 C 17.695312 -30.875 18.109375 -32.226562 18.109375 -34.1875 L 18.109375 -36.90625 C 18.109375 -38.675781 17.789062 -39.957031 17.15625 -40.75 C 16.53125 -41.539062 15.539062 -41.9375 14.1875 -41.9375 Z M 10.484375 -41.9375 "/></g></g></g><g fill="#031424" fill-opacity="1"><g transform="translate(88.306611, 364.326012)"><g><path d="M 2.3125 -36.765625 C 2.3125 -40.921875 3.265625 -44.082031 5.171875 -46.25 C 7.085938 -48.414062 10.046875 -49.5 14.046875 -49.5 C 17.828125 -49.5 20.679688 -48.4375 22.609375 -46.3125 C 24.546875 -44.1875 25.515625 -41.144531 25.515625 -37.1875 L 25.515625 -35.9375 L 18.25 -35.9375 L 18.25 -37.671875 C 18.25 -39.441406 17.882812 -40.6875 17.15625 -41.40625 C 16.4375 -42.132812 15.472656 -42.5 14.265625 -42.5 C 12.910156 -42.5 11.859375 -42.078125 11.109375 -41.234375 C 10.367188 -40.398438 10 -38.816406 10 -36.484375 L 10 -27.546875 C 11.351562 -30.429688 13.726562 -31.875 17.125 -31.875 C 19.96875 -31.875 22.097656 -30.914062 23.515625 -29 C 24.941406 -27.09375 25.65625 -24.320312 25.65625 -20.6875 L 25.65625 -11.75 C 25.65625 -7.78125 24.648438 -4.734375 22.640625 -2.609375 C 20.640625 -0.492188 17.753906 0.5625 13.984375 0.5625 C 10.203125 0.5625 7.3125 -0.492188 5.3125 -2.609375 C 3.3125 -4.734375 2.3125 -7.78125 2.3125 -11.75 Z M 13.984375 -24.890625 C 12.765625 -24.890625 11.796875 -24.523438 11.078125 -23.796875 C 10.359375 -23.078125 10 -21.832031 10 -20.0625 L 10 -11.25 C 10 -9.476562 10.359375 -8.242188 11.078125 -7.546875 C 11.796875 -6.847656 12.765625 -6.5 13.984375 -6.5 C 15.191406 -6.5 16.15625 -6.847656 16.875 -7.546875 C 17.601562 -8.242188 17.96875 -9.476562 17.96875 -11.25 L 17.96875 -20.0625 C 17.96875 -21.832031 17.601562 -23.078125 16.875 -23.796875 C 16.15625 -24.523438 15.191406 -24.890625 13.984375 -24.890625 Z M 13.984375 -24.890625 "/></g></g></g><g fill="#031424" fill-opacity="1"><g transform="translate(115.987922, 364.326012)"><g/></g></g><g fill="#031424" fill-opacity="1"><g transform="translate(126.822776, 364.326012)"><g><path d="M 25.09375 -18.25 L 25.09375 -11.75 C 25.09375 -7.78125 24.125 -4.734375 22.1875 -2.609375 C 20.257812 -0.492188 17.40625 0.5625 13.625 0.5625 C 9.851562 0.5625 7 -0.492188 5.0625 -2.609375 C 3.132812 -4.734375 2.171875 -7.78125 2.171875 -11.75 L 2.171875 -37.1875 C 2.171875 -41.144531 3.132812 -44.1875 5.0625 -46.3125 C 7 -48.4375 9.851562 -49.5 13.625 -49.5 C 17.40625 -49.5 20.257812 -48.4375 22.1875 -46.3125 C 24.125 -44.1875 25.09375 -41.144531 25.09375 -37.1875 L 25.09375 -32.4375 L 17.828125 -32.4375 L 17.828125 -37.671875 C 17.828125 -39.441406 17.460938 -40.6875 16.734375 -41.40625 C 16.015625 -42.132812 15.050781 -42.5 13.84375 -42.5 C 12.632812 -42.5 11.664062 -42.132812 10.9375 -41.40625 C 10.21875 -40.6875 9.859375 -39.441406 9.859375 -37.671875 L 9.859375 -11.25 C 9.859375 -9.476562 10.21875 -8.242188 10.9375 -7.546875 C 11.664062 -6.847656 12.632812 -6.5 13.84375 -6.5 C 15.050781 -6.5 16.015625 -6.847656 16.734375 -7.546875 C 17.460938 -8.242188 17.828125 -9.476562 17.828125 -11.25 L 17.828125 -18.25 Z M 25.09375 -18.25 "/></g></g></g><g fill="#031424" fill-opacity="1"><g transform="translate(153.805058, 364.326012)"><g><path d="M 2.796875 -48.9375 L 10.484375 -48.9375 L 10.484375 0 L 2.796875 0 Z M 2.796875 -48.9375 "/></g></g></g><g fill="#031424" fill-opacity="1"><g transform="translate(167.086498, 364.326012)"><g><path d="M 9.640625 -35.4375 L 9.640625 0 L 2.71875 0 L 2.71875 -48.9375 L 12.375 -48.9375 L 20.265625 -19.640625 L 20.265625 -48.9375 L 27.125 -48.9375 L 27.125 0 L 19.21875 0 Z M 9.640625 -35.4375 "/></g></g></g><g fill="#031424" fill-opacity="1"><g transform="translate(196.934782, 364.326012)"><g><path d="M 10.484375 -28.3125 L 21.046875 -28.3125 L 21.046875 -21.328125 L 10.484375 -21.328125 L 10.484375 -6.984375 L 23.765625 -6.984375 L 23.765625 0 L 2.796875 0 L 2.796875 -48.9375 L 23.765625 -48.9375 L 23.765625 -41.9375 L 10.484375 -41.9375 Z M 10.484375 -28.3125 "/></g></g></g><g fill="#031424" fill-opacity="1"><g transform="translate(222.658833, 364.326012)"><g><path d="M 19.078125 -14.1875 L 24.328125 -48.9375 L 35.015625 -48.9375 L 35.015625 0 L 27.75 0 L 27.75 -35.09375 L 22.4375 0 L 15.171875 0 L 9.4375 -34.609375 L 9.4375 0 L 2.71875 0 L 2.71875 -48.9375 L 13.421875 -48.9375 Z M 19.078125 -14.1875 "/></g></g></g><g fill="#031424" fill-opacity="1"><g transform="translate(260.47597, 364.326012)"><g><path d="M 27.6875 0 L 19.921875 0 L 18.59375 -8.875 L 9.15625 -8.875 L 7.828125 0 L 0.765625 0 L 8.59375 -48.9375 L 19.859375 -48.9375 Z M 10.140625 -15.515625 L 17.546875 -15.515625 L 13.84375 -40.265625 Z M 10.140625 -15.515625 "/></g></g></g><g fill="#031424" fill-opacity="1"><g transform="translate(288.926209, 364.326012)"><g><path d="M 1.8125 -37.1875 C 1.8125 -41.144531 2.753906 -44.1875 4.640625 -46.3125 C 6.535156 -48.4375 9.367188 -49.5 13.140625 -49.5 C 16.921875 -49.5 19.753906 -48.4375 21.640625 -46.3125 C 23.523438 -44.1875 24.46875 -41.144531 24.46875 -37.1875 L 24.46875 -35.296875 L 17.203125 -35.296875 L 17.203125 -37.671875 C 17.203125 -39.441406 16.863281 -40.6875 16.1875 -41.40625 C 15.507812 -42.132812 14.566406 -42.5 13.359375 -42.5 C 12.140625 -42.5 11.191406 -42.132812 10.515625 -41.40625 C 9.835938 -40.6875 9.5 -39.441406 9.5 -37.671875 C 9.5 -35.992188 9.875 -34.515625 10.625 -33.234375 C 11.375 -31.953125 12.304688 -30.738281 13.421875 -29.59375 C 14.535156 -28.457031 15.734375 -27.316406 17.015625 -26.171875 C 18.296875 -25.035156 19.492188 -23.789062 20.609375 -22.4375 C 21.734375 -21.082031 22.664062 -19.539062 23.40625 -17.8125 C 24.15625 -16.09375 24.53125 -14.070312 24.53125 -11.75 C 24.53125 -7.78125 23.5625 -4.734375 21.625 -2.609375 C 19.695312 -0.492188 16.847656 0.5625 13.078125 0.5625 C 9.296875 0.5625 6.4375 -0.492188 4.5 -2.609375 C 2.570312 -4.734375 1.609375 -7.78125 1.609375 -11.75 L 1.609375 -15.09375 L 8.875 -15.09375 L 8.875 -11.25 C 8.875 -9.476562 9.234375 -8.242188 9.953125 -7.546875 C 10.679688 -6.847656 11.648438 -6.5 12.859375 -6.5 C 14.078125 -6.5 15.046875 -6.847656 15.765625 -7.546875 C 16.484375 -8.242188 16.84375 -9.476562 16.84375 -11.25 C 16.84375 -12.925781 16.46875 -14.40625 15.71875 -15.6875 C 14.976562 -16.96875 14.046875 -18.179688 12.921875 -19.328125 C 11.804688 -20.472656 10.609375 -21.613281 9.328125 -22.75 C 8.046875 -23.894531 6.84375 -25.140625 5.71875 -26.484375 C 4.601562 -27.835938 3.671875 -29.375 2.921875 -31.09375 C 2.179688 -32.820312 1.8125 -34.851562 1.8125 -37.1875 Z M 1.8125 -37.1875 "/></g></g></g></svg>